# xmcd CD database file
#
# Track frame offsets:
#	150
#	30313
#	42474
#	52500
#	66584
#	89709
#	107201
#	122630
#	139591
#	151045
#	163404
#	176680
#	195887
#	224345
#	246731
#	259305
#	273218
#	308529
#
# Disc length: 4569 seconds
#
# Revision: 0
# Processed by: cddbd v1.5.2PL0 Copyright (c) Steve Scherf et al.
# Submitted via: CDex 1.79
#
DISCID=0111d712
DTITLE=Various Artist - La Grande Histoire Du Jazz CD2.32
DYEAR=2010
DGENRE=Jazz
TTITLE0=Charlie Shavers - Lucky Duck
TTITLE1=Charles Mingus - Day Dream
TTITLE2=Duke Ellington - Janet
TTITLE3=Duke Ellington - All Too Soon
TTITLE4=Buddy DeFranco - Ferdinando
TTITLE5=Miles Davis - Tempus Fugit
TTITLE6=Miles Davis - Enigma
TTITLE7=Miles Davis - Ray's Idea
TTITLE8=Laurindo Almeida - Speak Low
TTITLE9=Gerry Mulligan - Love Me Or Leave Me
TTITLE10=Gerry Mulligan - Swing House
TTITLE11=Lester Young - Up-N'Adam
TTITLE12=Oscar Peterson - The Man I Love
TTITLE13=Oscar Peterson - Seven Come Eleven
TTITLE14=Andre Previn - Nice Work If You Can Get It
TTITLE15=Woody Herman - Men From Mars
TTITLE16=Dizzie Gillespie - All The Things You Are
TTITLE17=Dizzie Gillespie - Salt Peanuts
EXTD=YEAR: 2010
EXTT0=
EXTT1=
EXTT2=
EXTT3=
EXTT4=
EXTT5=
EXTT6=
EXTT7=
EXTT8=
EXTT9=
EXTT10=
EXTT11=
EXTT12=
EXTT13=
EXTT14=
EXTT15=
EXTT16=
EXTT17=
PLAYORDER=
